<svg version="1.1" id="Layer_1" xmlns="http://www.w3.org/2000/svg" xmlns:xlink="http://www.w3.org/1999/xlink" x="0px" y="0px"
	 width="100%" viewBox="0 0 640 624" enable-background="new 0 0 640 624" xml:space="preserve">
<path fill="#000000" opacity="1.000000" stroke="none" 
	d="
M414.510193,464.585968 
	C380.372772,483.798615 344.130219,491.484100 305.543274,487.435516 
	C257.107544,482.353607 217.467712,460.260986 186.341415,423.328400 
	C163.255188,395.935669 149.526108,363.947144 145.908615,328.184875 
	C141.246597,282.096527 152.339508,239.968781 180.005463,202.581680 
	C208.439911,164.156036 246.268906,139.719742 293.342285,132.088699 
	C356.494324,121.851112 411.265625,139.887589 455.878143,186.312866 
	C476.099731,207.356079 489.748901,232.357544 497.288269,260.575470 
	C498.652649,265.682007 500.630310,268.872284 506.154755,271.061340 
	C523.906494,278.095306 531.920898,292.819855 531.949829,309.608734 
	C531.979736,326.939453 520.296875,342.289551 503.830383,347.568573 
	C500.483490,348.641571 499.083679,350.516693 498.288818,353.703613 
	C492.910004,375.269592 483.708618,395.091248 470.830200,413.212952 
	C455.840332,434.305725 437.152039,451.338928 414.510193,464.585968 
M434.377533,202.123199 
	C397.053680,165.037292 351.988251,150.222458 300.292603,157.867310 
	C264.372009,163.179321 233.938095,180.204529 209.978439,207.847687 
	C181.811142,240.345337 168.901871,278.076843 172.165619,321.109253 
	C174.430420,350.970520 185.080338,377.612396 203.025513,401.516357 
	C240.564606,451.520477 307.864410,474.025848 367.581604,455.594788 
	C419.919708,439.441162 454.350586,404.778107 471.107452,352.560730 
	C472.590240,347.940063 472.766968,344.905090 467.641235,342.075165 
	C461.626251,338.754272 457.214294,333.208618 454.507629,326.770264 
	C453.053955,323.312408 451.051483,322.120850 447.350555,322.138733 
	C421.023743,322.266144 394.695709,322.255035 368.368866,322.126251 
	C364.737518,322.108490 362.784088,323.168884 361.170105,326.639160 
	C354.400391,341.195160 338.474823,350.642395 322.808258,349.877777 
	C302.960205,348.909088 285.942810,333.035736 283.765686,313.459961 
	C281.553131,293.565948 294.083679,275.125031 313.714020,269.385773 
	C332.422455,263.916046 352.677948,273.136932 361.230621,291.244659 
	C362.708069,294.372803 364.408875,295.741241 367.987396,295.722565 
	C394.480743,295.584106 420.975311,295.598938 447.469025,295.695709 
	C450.696564,295.707489 452.725220,294.845490 454.064331,291.727661 
	C457.315369,284.158600 462.676178,278.289337 469.751404,274.124542 
	C472.445892,272.538422 472.731171,270.874084 471.933716,267.975922 
	C465.076172,243.052994 452.809113,221.244308 434.377533,202.123199 
M488.305298,294.872070 
	C478.193726,297.757355 473.793945,307.055206 478.462372,315.672546 
	C481.860718,321.945496 489.182281,324.676666 496.020294,322.222198 
	C502.208710,320.000854 506.415314,312.956238 505.217194,306.820435 
	C503.636993,298.728058 497.763000,294.308380 488.305298,294.872070 
M311.201355,303.886322 
	C309.343964,310.700195 310.909760,316.281769 315.731323,320.034271 
	C320.090210,323.426666 326.627411,324.011230 331.242188,321.421204 
	C336.824768,318.288055 339.591095,312.608887 338.615723,306.283386 
	C337.705475,300.379822 332.994812,295.907898 326.418213,294.703888 
	C320.648682,293.647644 314.985504,296.839966 311.201355,303.886322 
z"/>
<path fill="#000000" opacity="1.000000" stroke="none" 
	d="
M119.888901,488.195312 
	C126.294434,474.005432 136.503036,465.089325 151.747681,462.568115 
	C172.260056,459.175720 191.951935,471.987091 197.736069,492.084930 
	C205.075897,517.588379 185.244797,545.405334 156.332672,543.977234 
	C127.231865,542.539856 110.173256,513.482239 119.888901,488.195312 
M166.147125,514.770996 
	C172.597427,509.397156 174.238052,503.427185 171.088715,496.789398 
	C168.467499,491.264771 162.124130,487.792664 156.369385,488.793488 
	C150.475082,489.818573 146.128235,492.937805 144.591141,498.843964 
	C143.116547,504.509949 144.173035,509.856720 148.888275,513.784058 
	C154.015915,518.054810 159.655594,518.515442 166.147125,514.770996 
z"/>
<path fill="#000000" opacity="1.000000" stroke="none" 
	d="
M497.030304,434.673065 
	C517.690430,439.290344 530.102722,452.400146 531.883179,472.732727 
	C533.502136,491.220276 521.379517,509.804688 500.916168,515.008789 
	C484.589386,519.160950 470.447510,514.331055 459.729156,501.448517 
	C449.206726,488.801422 446.659027,474.287262 453.425568,459.014984 
	C460.497131,443.054260 473.390472,435.095703 490.658356,434.070007 
	C492.621857,433.953369 494.620941,434.435059 497.030304,434.673065 
M505.540527,475.441254 
	C505.309296,474.304871 505.130157,473.154938 504.838440,472.034302 
	C502.908997,464.621918 497.424713,460.678040 489.759888,461.161438 
	C482.807190,461.599976 477.834991,466.449158 476.649475,473.947449 
	C475.717133,479.844330 480.285828,486.595886 486.726837,488.839661 
	C495.164246,491.778900 502.459961,486.860016 505.540527,475.441254 
z"/>
<path fill="#000000" opacity="1.000000" stroke="none" 
	d="
M98.553696,144.599579 
	C113.237244,126.609421 138.426086,124.035706 156.284729,138.450912 
	C174.261902,152.961792 176.553436,178.018967 161.614639,196.731644 
	C148.508423,213.148788 122.597282,216.046661 105.967712,202.955124 
	C87.326630,188.280075 84.019638,163.159027 98.553696,144.599579 
M135.739792,183.450180 
	C136.471298,183.061737 137.252655,182.744629 137.926620,182.273819 
	C144.854889,177.434021 146.709869,169.589539 142.590912,162.661285 
	C138.975113,156.579376 130.683563,154.120956 124.294899,157.236526 
	C117.604607,160.499222 114.477554,168.445068 117.160774,175.364380 
	C119.958260,182.578354 127.121155,185.907822 135.739792,183.450180 
z"/>
<path fill="#000000" opacity="1.000000" stroke="none" 
	d="
M506.456726,153.873672 
	C488.033478,147.096176 477.232208,131.504318 477.701721,112.754990 
	C478.108795,96.499779 490.365295,80.628914 506.400146,75.593643 
	C528.865723,68.538971 552.552307,81.847992 558.454041,104.841728 
	C564.186829,127.177322 549.429382,150.513504 526.578064,154.991760 
	C519.980042,156.284790 513.334106,155.957855 506.456726,153.873672 
M524.759277,127.555077 
	C532.522827,122.750526 535.061279,115.343506 531.415161,108.134338 
	C528.193420,101.764381 520.240234,98.730682 513.622437,101.347420 
	C506.273102,104.253433 502.606262,111.949417 505.141571,119.147202 
	C507.960876,127.151428 515.021362,130.408096 524.759277,127.555077 
z"/>
<path fill="#000000" opacity="1.000000" stroke="none" 
	d="
M267.387451,420.597412 
	C246.150208,397.138824 256.881561,366.337585 278.343933,355.528534 
	C302.481049,343.372437 332.193451,357.722260 337.157257,384.303558 
	C341.997345,410.222351 321.646362,434.068817 295.246948,433.159393 
	C284.491913,432.788910 275.334564,428.329834 267.387451,420.597412 
M287.070068,402.449524 
	C293.213806,407.108521 298.414185,407.685394 304.069458,404.335205 
	C308.993378,401.418274 311.857086,395.792175 311.111664,390.499847 
	C310.232910,384.260773 305.946320,379.436829 300.268738,378.297668 
	C293.723877,376.984497 287.931091,379.289764 284.673004,384.504059 
	C281.136353,390.164154 281.744019,395.778748 287.070068,402.449524 
z"/>
</svg>